<?xml version="1.0" encoding="UTF-8"?>
<svg width="250px" height="120px" viewBox="0 0 250 120" version="1.1" xmlns="http://www.w3.org/2000/svg" xmlns:xlink="http://www.w3.org/1999/xlink">
    <!-- Generator: Sketch 55.2 (78181) - https://sketchapp.com -->
    <title>mnasser_port_grey</title>
    <desc>Created with Sketch.</desc>
    <g id="Desktop---port" stroke="none" stroke-width="1" fill="none" fill-rule="evenodd">
        <g id="01" transform="translate(-98.000000, -85.000000)" fill="#FFFFFF">
            <g id="mnasser_port_grey" transform="translate(98.000000, 85.000000)">
                <path d="M0.538900415,41.253112 C0.538900415,41.253112 1.78890041,43.0171162 2.0093361,43.6052905 C2.0093361,43.6052905 2.52385892,44.5606846 2.81794606,44.340249 C3.1120332,44.1198133 5.46421162,41.3262448 5.83195021,40.9590249 C6.1996888,40.5912863 10.5368257,35.1514523 11.0513485,34.6369275 C11.5658714,34.1224066 15.1680498,30.1524896 15.7562241,29.4906639 C16.3443983,28.8293568 18.5497925,26.9180498 19.284751,26.4766598 C20.0197095,26.0357884 21.4164938,25.5212656 22.151971,26.6239627 C22.8869295,27.7266598 23.8428423,30.4465768 24.4304979,33.313278 C25.0186722,36.1804979 26.2686722,42.2821577 26.2686722,43.6052905 C26.2686722,44.9284232 26.5627593,46.0311203 27.0036307,46.251556 C27.4445021,46.4725104 28.4740664,47.3542531 28.8412863,47.2074689 C29.2090249,47.060166 31.7821577,41.5466805 32.1493776,40.7380705 C32.5171162,39.9294606 35.3838174,35.0778008 36.4133817,34.4896266 C37.4424274,33.9014523 37.5160788,34.4159751 38.1042531,35.0041494 C38.6919087,35.5923237 40.0389004,38.091805 40.9211618,40.4439834 C41.8034232,42.7966805 42.80861,45.2225104 43.25,45.8843361 C43.6908714,46.5456432 44.4994813,47.3278008 44.9408714,47.3278008 C45.3817427,47.3278008 46.1903527,47.4315353 47.7339212,44.4139004 C48.5731328,42.7738589 51.2629668,38.2391079 51.9979253,37.1364108 C52.7328838,36.0337137 56.7028008,29.7116183 58.8345436,26.6976141 C60.9662863,23.68361 64.0539419,19.7136929 66.2593361,17.8023859 C68.4647303,15.8910788 69.3469917,15.1561203 71.0378631,15.2292531 C72.7282158,15.3029046 74.125,18.8314315 74.93361,21.1841286 C75.7422199,23.5363071 77.3599585,30.8874481 77.2863071,37.9450207 C77.2126556,45.0020747 77.2863071,44.4139004 77.2126556,47.9424274 C77.1390041,51.4709544 76.1099585,64.4092324 75.5954357,67.7909751 C75.0809129,71.1727178 74.4190871,76.3184647 74.125,79.4792531 C73.8309129,82.6405602 73.31639,89.0363071 73.31639,91.314834 C73.31639,93.5938797 73.3900415,111.08973 73.4636929,112.70695 C73.5373444,114.32417 74.2723029,119.837656 74.6400415,119.837656 C75.0072614,119.837656 74.7868257,108.957988 74.8604772,107.561203 C74.93361,106.164419 75.5217842,98.1514523 76.2572614,91.9030083 C76.9922199,85.6545643 78.1685685,72.2754149 78.4626556,70.1431535 C78.7567427,68.0114108 80.7411826,52.7946058 80.6680498,43.4585062 C80.5943983,34.1224066 80.6592324,29.9149378 78.7567427,22.7276971 C77.4330913,17.7287344 75.0809129,13.6856846 73.8309129,12.1421162 C72.5814315,10.598029 71.1846473,11.1779046 69.6410788,11.6270747 C68.0969917,12.0767635 62.9512448,14.6410788 58.0995851,20.81639 C53.2474066,26.9917012 52.9533195,28.6820539 51.3360996,31.1815353 C49.7188797,33.6810166 47.0726141,38.4595436 45.969917,40.5176349 C44.8672199,42.5762448 44.1322614,41.9880705 43.6908714,40.9590249 C43.25,39.9294606 40.1623444,34.563278 39.280083,33.0928423 C38.3978216,31.6229253 37.1483402,31.4756224 36.7806017,31.4756224 C36.4133817,31.4756224 33.6934647,32.8724066 32.0025934,35.8864108 C30.311722,38.9004149 29.7971992,41.9144191 28.9149378,42.061722 C28.0326763,42.2085062 25.9745851,32.504668 24.5041494,27.5793568 C23.0337137,22.6540456 20.0772822,23.19139 18.9906639,23.4626556 C17.5207469,23.8303942 11.1530083,29.0529046 7.66960581,32.9460581 C6.42012448,34.3428423 5.68516598,34.7100622 5.39107884,35.2982365 C5.0969917,35.8864108 4.58246888,36.6950207 4.14107884,36.9891079 C3.70020747,37.283195 0.171680498,39.341805 0.538900415,41.253112" id="Fill-1"></path>
                <path d="M96.9139004,59.5575726 C96.9139004,59.5575726 96.9139004,54.7059129 96.6198133,51.9854772 C96.3262448,49.2655602 95.8848548,46.9870332 95.8112033,45.0020747 C95.7380705,43.0171162 96.1052905,40.3708506 96.3625519,38.1654564 C96.6198133,35.9600622 97.5020747,31.843361 97.7961618,30.7406639 C98.090249,29.6379668 99.1192946,25.3739627 99.4133817,24.4922199 C99.7074689,23.6099585 100.075207,21.625 100.516079,21.4045643 C100.957469,21.1841286 102.427386,20.8511411 103.235996,21.311722 C104.044606,21.7723029 105.07417,22.5072614 105.515041,24.7863071 C105.955913,27.064834 105.588693,27.064834 105.88278,28.0207469 C106.176867,28.9761411 109.190871,36.4009336 110.146266,40.7380705 C111.102178,45.0757261 112.719398,50.1478216 113.748444,50.4419087 C114.77749,50.7359959 120.08195,42.6198133 121.687759,33.9014523 C123.123444,26.1094398 123.084544,27.5793568 123.893154,20.4486515 C124.701763,13.3179461 123.123444,10.1571577 123.123444,8.90715768 C123.123444,7.65767635 120.364627,1.40923237 120.511411,0.30653527 C120.585062,-0.355290456 121.908195,1.99740664 121.908195,1.99740664 C121.908195,1.99740664 125.804461,7.28993776 126.245851,16.0378631 C126.686722,24.7863071 124.866701,33.0165975 122.570021,39.4149378 C120.511411,45.1488589 118.526971,49.4865145 116.982884,52.4268672 C115.439315,55.3672199 114.336618,55.3672199 113.748444,55.3672199 C113.16027,55.3672199 111.54305,54.9424274 109.705394,49.751556 C107.867739,44.5606846 106.470954,41.6939834 104.26556,35.4455394 C102.060166,29.1965768 101.618776,27.3589212 101.39834,27.3589212 C101.177905,27.3589212 100.148859,30.6670124 99.7811203,33.754668 C99.4133817,36.8423237 99.1192946,43.3848548 99.1192946,45.6639004 C99.1192946,47.9424274 98.3843361,56.469917 97.7225104,58.3075726 C97.0612033,60.1457469 96.9139004,59.5575726 96.9139004,59.5575726" id="Fill-2"></path>
                <path d="M244.453838,49.6332988 C243.27749,49.4865145 233.206432,48.971473 225.634855,49.780083 C218.062759,50.5892116 212.696577,51.1037344 211.446577,49.8537344 C210.197095,48.6042531 211.59388,47.5746888 211.9611,47.2811203 C212.328838,46.9870332 213.284751,46.1047718 212.917012,45.8106846 C212.549274,45.5165975 210.564315,46.251556 209.755705,45.9574689 C208.947095,45.6633817 207.991701,44.5606846 207.403527,43.4579876 C206.815353,42.3552905 204.609959,42.5025934 202.772303,43.531639 C200.934129,44.5606846 199.170124,47.2811203 198.361515,48.4569502 C197.552905,49.6332988 195.641598,52.3532158 193.068465,53.3091286 C190.495851,54.2645228 188.143154,53.75 185.790975,52.94139 C183.438278,52.1327801 182.997407,51.7650415 182.409232,50.4419087 C181.821058,49.1187759 182.409232,47.1338174 182.409232,47.1338174 C182.409232,47.1338174 189.907676,44.1198133 191.892116,41.3262448 C193.877075,38.533195 193.362552,37.3568465 193.362552,36.4009336 C193.362552,35.4455394 191.965768,33.0928423 190.274896,32.1374481 C188.584544,31.1815353 186.525934,33.0197095 185.864108,33.4605809 C185.202801,33.9014523 181.89471,37.5772822 180.130187,43.6789419 C179.909751,44.1198133 179.174793,44.340249 178.66027,44.5606846 C178.145228,44.781639 175.204876,45.9574689 174.543568,45.6633817 C173.881743,45.3698133 174.842842,45.1426349 174.98444,44.0461618 C175.278527,41.7676349 174.764004,39.7090249 173.146784,36.6950207 C171.529564,33.6810166 169.250519,31.4756224 168.368257,31.4756224 C167.485996,31.4756224 167.26556,32.1374481 167.118776,32.9460581 C166.971473,33.754668 166.677386,38.0181535 165.574689,39.7090249 C164.471992,41.3998963 163.075207,43.2375519 161.311203,44.1934647 C160.134855,44.8547718 159.767116,43.531639 159.767116,43.0171162 C159.767116,42.5025934 158.958506,39.4885892 155.724066,34.6369295 C152.783714,31.034751 151.681017,31.6960581 151.681017,31.6960581 C151.681017,31.6960581 151.092842,31.843361 150.798755,33.5342324 C150.504668,35.2251037 149.76971,38.2391079 148.593361,40.5912863 C147.417012,42.9434647 146.976141,43.8257261 146.608402,44.4875519 C146.241183,45.1488589 146.167531,46.251556 145.505705,46.251556 C144.844398,46.251556 144.035788,43.8257261 143.006224,39.2681535 C141.977178,34.7100622 139.036826,33.5342324 137.640041,33.3137967 C136.243257,33.0928423 133.52334,34.7837137 132.052905,36.6950207 C131.612033,37.2095436 131.09751,36.6950207 130.215249,37.2095436 C129.332988,37.7240664 128.598029,41.0321577 128.524378,41.4735477 C128.451245,41.9144191 127.715768,46.0311203 126.760373,48.4569502 C125.804461,50.8827801 123.819502,52.0591286 124.407676,53.6763485 C124.407676,53.6763485 125.143154,54.55861 126.245332,53.9704357 C127.348029,53.3822614 129.700726,47.5746888 130.215249,45.1488589 C130.509336,45.1275934 130.509336,47.501556 130.509336,47.8687759 C130.509336,48.2365145 130.950207,52.94139 133.229253,53.3822614 C135.508299,53.8236515 138.301867,52.2064315 140.213174,50.4419087 C142.124481,48.6773859 142.85944,48.3838174 143.815353,48.310166 C144.770747,48.2365145 145.432573,49.6607884 145.947095,49.6607884 C146.461618,49.6607884 148.078838,47.060166 148.813797,45.8106846 C149.549274,44.5606846 151.460581,41.4735477 152.048755,40.2235477 C152.636411,38.9740664 153.445021,36.6213693 153.739108,36.4745851 C154.033195,36.3278008 155.503631,40.0767635 155.871369,43.0907676 C156.238589,46.1047718 155.871369,45.9574689 155.577282,46.5456432 C155.283195,47.1338174 151.975104,49.780083 152.636411,51.7650415 C153.298237,53.75 155.209544,53.5295643 156.606328,51.9123444 C158.003112,50.2951245 158.517635,48.6773859 158.664419,47.3542531 C158.811722,46.7660788 161.311203,45.935166 162.707988,45.3215768 C164.104772,44.7079876 166.383299,42.9434647 167.780083,41.253112 C169.176867,39.5622407 169.176867,37.4304979 169.838693,37.283195 C170.5,37.1364108 171.832988,38.2391079 172.117739,40.2235477 C172.378112,42.0430498 172.779046,43.6789419 170.647303,45.9574689 C168.51556,48.2365145 166.751037,50.0010373 167.26556,51.1768672 C167.780083,52.3532158 169.397303,52.6473029 171.455913,51.5446058 C173.514004,50.4419087 175.425311,48.6042531 179.46888,47.501556 C179.615664,47.9424274 179.248444,49.7069502 179.248444,50.8096473 C179.248444,51.9123444 180.497925,55.7349585 185.937759,56.3231328 C191.377593,56.9107884 192.333506,55.9553942 193.73029,55.2204357 C195.127075,54.4849585 197.846992,51.9123444 200.493257,48.971473 C202.772303,46.4880705 204.389523,46.6192946 205.271784,46.6929461 C206.153527,46.7660788 208.358921,46.6192946 209.314834,48.3838174 C209.682573,49.4128631 208.579876,49.8537344 208.873963,50.9564315 C208.994813,51.4113071 209.020747,51.9854772 211.446577,52.3532158 C213.872407,52.7209544 226.737552,52.0591286 230.412863,51.3241701 C234.088693,50.5892116 247.247407,50.2951245 249.158714,50.5892116 C251.070021,50.0741701 245.630187,49.780083 244.453838,49.6332988 Z M141.389004,45.1488589 C140.948133,46.7660788 139.845436,48.1628631 136.684129,49.6332988 C133.52334,51.1037344 132.861515,49.4865145 132.420643,48.0897303 C131.979772,46.6929461 132.200207,42.6493776 132.200207,42.6493776 C132.567946,39.1945021 135.360996,36.2541494 136.905083,35.8127593 C138.448651,35.371888 139.18361,36.6950207 139.698651,37.6509336 C140.213174,38.6063278 141.830394,43.531639 141.389004,45.1488589 Z M184.246888,42.2821577 C187.481328,35.5923237 188.290456,36.1068465 188.510892,36.1804979 C188.731328,36.2541494 190.274896,36.5482365 189.025415,38.6799793 C187.775415,40.811722 184.246888,42.2821577 184.246888,42.2821577 L184.246888,42.2821577 Z" id="Fill-3"></path>
                <path d="M97.2479253,75.723029 L98.2748963,75.723029 C98.4616183,75.723029 98.5643154,75.6109959 98.6109959,75.4989627 L98.9470954,74.7520747 L101.486515,74.7520747 L101.822614,75.4896266 C101.906639,75.6670124 101.981328,75.723029 102.149378,75.723029 L103.185685,75.723029 C103.325726,75.723029 103.400415,75.6016598 103.344398,75.4802905 L100.422199,69.1970954 C100.394191,69.1410788 100.328838,69.0943983 100.263485,69.0943983 L100.170124,69.0943983 C100.104772,69.0943983 100.039419,69.1410788 100.011411,69.1970954 L97.0892116,75.4802905 C97.033195,75.6016598 97.1078838,75.723029 97.2479253,75.723029 Z M99.5072614,73.4823651 L100.207469,71.9419087 L100.216805,71.9419087 L100.926349,73.4823651 L99.5072614,73.4823651 Z M105.883817,75.5456432 C105.883817,75.6390041 105.958506,75.723029 106.051867,75.723029 L108.329876,75.723029 C110.131743,75.723029 111.606846,74.2572614 111.606846,72.4460581 C111.606846,70.653527 110.131743,69.1877593 108.329876,69.1877593 L106.051867,69.1877593 C105.958506,69.1877593 105.883817,69.2717842 105.883817,69.3651452 L105.883817,75.5456432 Z M107.340249,74.3412863 L107.340249,70.560166 L108.236515,70.560166 C109.291494,70.560166 110.057054,71.3910788 110.057054,72.4460581 C110.057054,73.5103734 109.291494,74.3412863 108.236515,74.3412863 L107.340249,74.3412863 Z M116.526971,75.7136929 C116.554979,75.7697095 116.610996,75.81639 116.685685,75.81639 L116.779046,75.81639 C116.853734,75.81639 116.909751,75.7697095 116.937759,75.7136929 L119.869295,69.4304979 C119.925311,69.3091286 119.850622,69.1877593 119.710581,69.1877593 L118.46888,69.1877593 C118.394191,69.1877593 118.328838,69.2437759 118.310166,69.2904564 L116.76971,72.6981328 L116.713693,72.6981328 L115.173237,69.2904564 C115.154564,69.2437759 115.089212,69.1877593 115.014523,69.1877593 L113.772822,69.1877593 C113.63278,69.1877593 113.558091,69.3091286 113.614108,69.4304979 L116.526971,75.7136929 Z M121.876556,72.4647303 C121.876556,74.3319502 123.360996,75.81639 125.228216,75.81639 C127.095436,75.81639 128.589212,74.3319502 128.589212,72.4647303 C128.589212,70.5975104 127.095436,69.0943983 125.228216,69.0943983 C123.360996,69.0943983 121.876556,70.5975104 121.876556,72.4647303 Z M123.370332,72.4647303 C123.370332,71.4377593 124.210581,70.5881743 125.228216,70.5881743 C126.255187,70.5881743 127.095436,71.4377593 127.095436,72.4647303 C127.095436,73.4823651 126.255187,74.3226141 125.228216,74.3226141 C124.210581,74.3226141 123.370332,73.4823651 123.370332,72.4647303 Z M131.016598,72.4647303 C131.016598,74.3319502 132.51971,75.81639 134.386929,75.81639 C135.217842,75.81639 136.020747,75.526971 136.655602,74.9107884 C136.720954,74.8454357 136.73029,74.7240664 136.664938,74.6587137 L135.936722,73.8838174 C135.880705,73.8184647 135.759336,73.8184647 135.693983,73.8744813 C135.357884,74.1639004 134.881743,74.3226141 134.442946,74.3226141 C133.387967,74.3226141 132.603734,73.4636929 132.603734,72.4273859 C132.603734,71.3817427 133.378631,70.5041494 134.43361,70.5041494 C134.891079,70.5041494 135.348548,70.6721992 135.693983,70.9802905 C135.759336,71.0456432 135.862033,71.0456432 135.927386,70.9802905 L136.655602,70.2240664 C136.73029,70.1493776 136.73029,70.0373444 136.646266,69.9626556 C136.011411,69.3838174 135.320539,69.0943983 134.386929,69.0943983 C132.51971,69.0943983 131.016598,70.5975104 131.016598,72.4647303 Z M138.867739,75.723029 L139.89471,75.723029 C140.081432,75.723029 140.184129,75.6109959 140.230809,75.4989627 L140.566909,74.7520747 L143.106328,74.7520747 L143.442427,75.4896266 C143.526452,75.6670124 143.601141,75.723029 143.769191,75.723029 L144.805498,75.723029 C144.945539,75.723029 145.020228,75.6016598 144.964212,75.4802905 L142.042012,69.1970954 C142.014004,69.1410788 141.948651,69.0943983 141.883299,69.0943983 L141.789938,69.0943983 C141.724585,69.0943983 141.659232,69.1410788 141.631224,69.1970954 L138.709025,75.4802905 C138.653008,75.6016598 138.727697,75.723029 138.867739,75.723029 Z M141.127075,73.4823651 L141.827282,71.9419087 L141.836618,71.9419087 L142.546162,73.4823651 L141.127075,73.4823651 Z M146.971473,72.4647303 C146.971473,74.3319502 148.474585,75.81639 150.341805,75.81639 C151.172718,75.81639 151.975622,75.526971 152.610477,74.9107884 C152.67583,74.8454357 152.685166,74.7240664 152.619813,74.6587137 L151.891598,73.8838174 C151.835581,73.8184647 151.714212,73.8184647 151.648859,73.8744813 C151.312759,74.1639004 150.836618,74.3226141 150.397822,74.3226141 C149.342842,74.3226141 148.55861,73.4636929 148.55861,72.4273859 C148.55861,71.3817427 149.333506,70.5041494 150.388485,70.5041494 C150.845954,70.5041494 151.303423,70.6721992 151.648859,70.9802905 C151.714212,71.0456432 151.816909,71.0456432 151.882261,70.9802905 L152.610477,70.2240664 C152.685166,70.1493776 152.685166,70.0373444 152.601141,69.9626556 C151.966286,69.3838174 151.275415,69.0943983 150.341805,69.0943983 C148.474585,69.0943983 146.971473,70.5975104 146.971473,72.4647303 Z M155.504668,75.5456432 C155.504668,75.6390041 155.588693,75.723029 155.682054,75.723029 L156.802386,75.723029 C156.895747,75.723029 156.979772,75.6390041 156.979772,75.5456432 L156.979772,69.3651452 C156.979772,69.2717842 156.895747,69.1877593 156.802386,69.1877593 L155.682054,69.1877593 C155.588693,69.1877593 155.504668,69.2717842 155.504668,69.3651452 L155.504668,75.5456432 Z M159.677905,75.723029 L160.704876,75.723029 C160.891598,75.723029 160.994295,75.6109959 161.040975,75.4989627 L161.377075,74.7520747 L163.916494,74.7520747 L164.252593,75.4896266 C164.336618,75.6670124 164.411307,75.723029 164.579357,75.723029 L165.615664,75.723029 C165.755705,75.723029 165.830394,75.6016598 165.774378,75.4802905 L162.852178,69.1970954 C162.82417,69.1410788 162.758817,69.0943983 162.693465,69.0943983 L162.600104,69.0943983 C162.534751,69.0943983 162.469398,69.1410788 162.44139,69.1970954 L159.519191,75.4802905 C159.463174,75.6016598 159.537863,75.723029 159.677905,75.723029 Z M161.937241,73.4823651 L162.637448,71.9419087 L162.646784,71.9419087 L163.356328,73.4823651 L161.937241,73.4823651 Z M172.150415,75.5456432 C172.150415,75.6390041 172.225104,75.723029 172.327801,75.723029 L176.192946,75.723029 C176.295643,75.723029 176.370332,75.6390041 176.370332,75.5456432 L176.370332,74.5280083 C176.370332,74.4346473 176.295643,74.3506224 176.192946,74.3506224 L173.606846,74.3506224 L173.606846,73.090249 L175.735477,73.090249 C175.828838,73.090249 175.912863,73.0155602 175.912863,72.9128631 L175.912863,71.8952282 C175.912863,71.8018672 175.828838,71.7178423 175.735477,71.7178423 L173.606846,71.7178423 L173.606846,70.560166 L176.192946,70.560166 C176.295643,70.560166 176.370332,70.4761411 176.370332,70.3827801 L176.370332,69.3651452 C176.370332,69.2717842 176.295643,69.1877593 176.192946,69.1877593 L172.327801,69.1877593 C172.225104,69.1877593 172.150415,69.2717842 172.150415,69.3651452 L172.150415,75.5456432 Z M179.068465,75.0975104 C179.283195,75.3122407 179.955394,75.81639 181.169087,75.81639 C182.541494,75.81639 183.372407,74.8454357 183.372407,73.8838174 C183.372407,72.6141079 182.21473,72.0446058 181.486515,71.7551867 C180.748963,71.4564315 180.46888,71.1950207 180.46888,70.8495851 C180.46888,70.5975104 180.720954,70.373444 181.057054,70.373444 C181.626556,70.373444 182.308091,70.8869295 182.392116,70.93361 C182.476141,70.9989627 182.644191,70.9149378 182.709544,70.8122407 L183.185685,70.093361 C183.223029,70.0280083 183.241701,69.8599585 183.129668,69.7946058 C182.849585,69.5892116 182.102697,69.0943983 181.131743,69.0943983 C179.693983,69.0943983 178.975104,70.0280083 178.975104,70.9522822 C178.975104,72.0726141 179.983402,72.6981328 180.786307,73.0155602 C181.421162,73.2676349 181.747925,73.56639 181.747925,73.9585062 C181.747925,74.2852697 181.477178,74.5186722 181.103734,74.5186722 C180.487552,74.5186722 179.815353,74.0238589 179.778008,74.0051867 C179.712656,73.9585062 179.53527,73.939834 179.460581,74.0612033 L179.021784,74.8360996 C178.947095,74.966805 178.975104,75.0041494 179.068465,75.0975104 Z M187.125519,75.5456432 C187.125519,75.6390041 187.209544,75.723029 187.302905,75.723029 L188.423237,75.723029 C188.516598,75.723029 188.600622,75.6390041 188.600622,75.5456432 L188.600622,70.560166 L189.935685,70.560166 C190.038382,70.560166 190.113071,70.4761411 190.113071,70.3827801 L190.113071,69.3651452 C190.113071,69.2717842 190.038382,69.1877593 189.935685,69.1877593 L185.790456,69.1877593 C185.687759,69.1877593 185.613071,69.2717842 185.613071,69.3651452 L185.613071,70.3827801 C185.613071,70.4761411 185.687759,70.560166 185.790456,70.560166 L187.125519,70.560166 L187.125519,75.5456432 Z M192.820539,75.5456432 C192.820539,75.6390041 192.895228,75.723029 192.997925,75.723029 L194.108921,75.723029 C194.202282,75.723029 194.286307,75.6390041 194.286307,75.5456432 L194.286307,73.1649378 L194.930498,73.1649378 L196.172199,75.6390041 C196.190871,75.6763485 196.246888,75.723029 196.321577,75.723029 L197.563278,75.723029 C197.721992,75.723029 197.787344,75.5736515 197.721992,75.4522822 L196.442946,73.0809129 C197.255187,72.7541494 197.824689,72.063278 197.824689,71.2043568 C197.824689,70.093361 196.909751,69.1877593 195.789419,69.1877593 L192.997925,69.1877593 C192.895228,69.1877593 192.820539,69.2717842 192.820539,69.3651452 L192.820539,75.5456432 Z M194.286307,71.9792531 L194.286307,70.5228216 L195.66805,70.5228216 C196.05083,70.5228216 196.377593,70.840249 196.377593,71.2323651 C196.377593,71.6244813 196.05083,71.9792531 195.66805,71.9792531 L194.286307,71.9792531 Z M200.16805,75.723029 L201.195021,75.723029 C201.381743,75.723029 201.48444,75.6109959 201.53112,75.4989627 L201.86722,74.7520747 L204.406639,74.7520747 L204.742739,75.4896266 C204.826763,75.6670124 204.901452,75.723029 205.069502,75.723029 L206.105809,75.723029 C206.245851,75.723029 206.320539,75.6016598 206.264523,75.4802905 L203.342324,69.1970954 C203.314315,69.1410788 203.248963,69.0943983 203.18361,69.0943983 L203.090249,69.0943983 C203.024896,69.0943983 202.959544,69.1410788 202.931535,69.1970954 L200.009336,75.4802905 C199.95332,75.6016598 200.028008,75.723029 200.16805,75.723029 Z M202.427386,73.4823651 L203.127593,71.9419087 L203.136929,71.9419087 L203.846473,73.4823651 L202.427386,73.4823651 Z M209.308091,75.5456432 C209.308091,75.6390041 209.392116,75.723029 209.485477,75.723029 L210.605809,75.723029 C210.69917,75.723029 210.783195,75.6390041 210.783195,75.5456432 L210.783195,70.560166 L212.118257,70.560166 C212.220954,70.560166 212.295643,70.4761411 212.295643,70.3827801 L212.295643,69.3651452 C212.295643,69.2717842 212.220954,69.1877593 212.118257,69.1877593 L207.973029,69.1877593 C207.870332,69.1877593 207.795643,69.2717842 207.795643,69.3651452 L207.795643,70.3827801 C207.795643,70.4761411 207.870332,70.560166 207.973029,70.560166 L209.308091,70.560166 L209.308091,75.5456432 Z M215.003112,75.5456432 C215.003112,75.6390041 215.077801,75.723029 215.180498,75.723029 L219.045643,75.723029 C219.14834,75.723029 219.223029,75.6390041 219.223029,75.5456432 L219.223029,74.5280083 C219.223029,74.4346473 219.14834,74.3506224 219.045643,74.3506224 L216.459544,74.3506224 L216.459544,73.090249 L218.588174,73.090249 C218.681535,73.090249 218.76556,73.0155602 218.76556,72.9128631 L218.76556,71.8952282 C218.76556,71.8018672 218.681535,71.7178423 218.588174,71.7178423 L216.459544,71.7178423 L216.459544,70.560166 L219.045643,70.560166 C219.14834,70.560166 219.223029,70.4761411 219.223029,70.3827801 L219.223029,69.3651452 C219.223029,69.2717842 219.14834,69.1877593 219.045643,69.1877593 L215.180498,69.1877593 C215.077801,69.1877593 215.003112,69.2717842 215.003112,69.3651452 L215.003112,75.5456432 Z M216.496888,68.6089212 L218.196058,67.843361 C218.270747,67.7966805 218.326763,67.7033195 218.252075,67.563278 L217.934647,67.0124481 C217.887967,66.9284232 217.747925,66.9470954 217.691909,66.9844398 L216.104772,67.9553942 C216.058091,67.9927386 216.011411,68.0580913 216.048755,68.1327801 L216.244813,68.5248963 C216.291494,68.6182573 216.375519,68.68361 216.496888,68.6089212 Z M221.78112,72.4647303 C221.78112,74.3319502 223.274896,75.8070539 225.13278,75.8070539 C226.486515,75.8070539 227.448133,75.2002075 227.448133,75.2002075 C227.485477,75.1721992 227.522822,75.0975104 227.522822,75.0508299 L227.513485,72.5394191 C227.513485,72.4460581 227.438797,72.3620332 227.345436,72.3620332 L225.46888,72.3620332 C225.366183,72.3620332 225.291494,72.436722 225.291494,72.5394191 L225.291494,73.4636929 C225.291494,73.5570539 225.366183,73.6317427 225.46888,73.6317427 L226.057054,73.6317427 L226.057054,74.1732365 C225.776971,74.2852697 225.496888,74.3226141 225.226141,74.3226141 C224.208506,74.3226141 223.377593,73.4823651 223.377593,72.4647303 C223.377593,71.4377593 224.19917,70.5788382 225.216805,70.5788382 C225.674274,70.5788382 226.085062,70.7002075 226.439834,71.026971 C226.514523,71.0829876 226.61722,71.0829876 226.691909,71.0176349 L227.429461,70.2334025 C227.504149,70.1587137 227.494813,70.0466805 227.410788,69.9813278 C226.775934,69.4304979 225.917012,69.1037344 225.13278,69.1037344 C223.274896,69.1037344 221.78112,70.5975104 221.78112,72.4647303 Z M230.575726,75.5456432 C230.575726,75.6390041 230.659751,75.723029 230.753112,75.723029 L231.873444,75.723029 C231.966805,75.723029 232.05083,75.6390041 232.05083,75.5456432 L232.05083,69.3651452 C232.05083,69.2717842 231.966805,69.1877593 231.873444,69.1877593 L230.753112,69.1877593 C230.659751,69.1877593 230.575726,69.2717842 230.575726,69.3651452 L230.575726,75.5456432 Z M234.953838,72.4647303 C234.953838,74.3319502 236.45695,75.81639 238.32417,75.81639 C239.155083,75.81639 239.957988,75.526971 240.592842,74.9107884 C240.658195,74.8454357 240.667531,74.7240664 240.602178,74.6587137 L239.873963,73.8838174 C239.817946,73.8184647 239.696577,73.8184647 239.631224,73.8744813 C239.295124,74.1639004 238.818983,74.3226141 238.380187,74.3226141 C237.325207,74.3226141 236.540975,73.4636929 236.540975,72.4273859 C236.540975,71.3817427 237.315871,70.5041494 238.370851,70.5041494 C238.82832,70.5041494 239.285788,70.6721992 239.631224,70.9802905 C239.696577,71.0456432 239.799274,71.0456432 239.864627,70.9802905 L240.592842,70.2240664 C240.667531,70.1493776 240.667531,70.0373444 240.583506,69.9626556 C239.948651,69.3838174 239.25778,69.0943983 238.32417,69.0943983 C236.45695,69.0943983 234.953838,70.5975104 234.953838,72.4647303 Z M242.805498,75.723029 L243.832469,75.723029 C244.019191,75.723029 244.121888,75.6109959 244.168568,75.4989627 L244.504668,74.7520747 L247.044087,74.7520747 L247.380187,75.4896266 C247.464212,75.6670124 247.5389,75.723029 247.70695,75.723029 L248.743257,75.723029 C248.883299,75.723029 248.957988,75.6016598 248.901971,75.4802905 L245.979772,69.1970954 C245.951763,69.1410788 245.886411,69.0943983 245.821058,69.0943983 L245.727697,69.0943983 C245.662344,69.0943983 245.596992,69.1410788 245.568983,69.1970954 L242.646784,75.4802905 C242.590768,75.6016598 242.665456,75.723029 242.805498,75.723029 Z M245.064834,73.4823651 L245.765041,71.9419087 L245.774378,71.9419087 L246.483921,73.4823651 L245.064834,73.4823651 L245.064834,73.4823651 Z" id="Fill-4"></path>
            </g>
        </g>
    </g>
</svg>