<?xml version="1.0" encoding="utf-8"?>
<svg width="399px" height="192px" viewBox="0 0 399 192" version="1.1" xmlns:xlink="http://www.w3.org/1999/xlink" xmlns="http://www.w3.org/2000/svg">
  <desc>Created with Lunacy</desc>
  <g id="mnasser_engl_white">
    <path d="M0 10.322C0 10.4714 0.119502 10.6058 0.26888 10.6058L3.91369 10.6058C6.79668 10.6058 9.15685 8.26058 9.15685 5.36266C9.15685 2.49461 6.79668 0.149378 3.91369 0.149378L0.26888 0.149378C0.119502 0.149378 0 0.283817 0 0.433195L0 10.322ZM2.33029 8.39502L2.33029 2.34523L3.76432 2.34523C5.45228 2.34523 6.67718 3.67469 6.67718 5.36266C6.67718 7.06556 5.45228 8.39502 3.76432 8.39502L2.33029 8.39502ZM13.8174 10.322C13.8174 10.4714 13.9519 10.6058 14.1012 10.6058L15.8938 10.6058C16.0432 10.6058 16.1776 10.4714 16.1776 10.322L16.1776 0.433195C16.1776 0.283817 16.0432 0.149378 15.8938 0.149378L14.1012 0.149378C13.9519 0.149378 13.8174 0.283817 13.8174 0.433195L13.8174 10.322ZM21.0614 9.60498C21.405 9.94855 22.4805 10.7552 24.4224 10.7552C26.6183 10.7552 27.9477 9.20166 27.9477 7.66307C27.9477 5.63154 26.0954 4.72033 24.9303 4.25726C23.7502 3.77925 23.3021 3.361 23.3021 2.8083C23.3021 2.40498 23.7054 2.04647 24.2432 2.04647C25.1544 2.04647 26.2448 2.86805 26.3793 2.94274C26.5137 3.0473 26.7826 2.91286 26.8871 2.74855L27.649 1.59834C27.7087 1.49378 27.7386 1.2249 27.5593 1.12033C27.1112 0.791701 25.9162 0 24.3627 0C22.0622 0 20.912 1.49378 20.912 2.97261C20.912 4.76515 22.5253 5.76598 23.81 6.27386C24.8257 6.67718 25.3485 7.15519 25.3485 7.78257C25.3485 8.30539 24.9154 8.67884 24.3178 8.67884C23.332 8.67884 22.2564 7.88714 22.1967 7.85726C22.0921 7.78257 21.8083 7.7527 21.6888 7.94689L20.9867 9.18672C20.8672 9.39585 20.912 9.4556 21.0614 9.60498ZM32.6083 10.322C32.6083 10.4714 32.7278 10.6058 32.8921 10.6058L34.6548 10.6058C34.8041 10.6058 34.9386 10.4714 34.9386 10.322L34.9386 6.81162L36.5071 6.81162C38.3295 6.81162 39.8382 5.3029 39.8382 3.45062C39.8382 1.64315 38.3295 0.149378 36.4921 0.149378L32.8921 0.149378C32.7278 0.149378 32.6083 0.283817 32.6083 0.433195L32.6083 10.322ZM34.9386 4.63071L34.9386 2.34523L36.3577 2.34523C37 2.34523 37.5378 2.82324 37.5378 3.45062C37.5378 4.12282 37 4.63071 36.3577 4.63071L34.9386 4.63071ZM44.0954 6.60249C44.0954 8.87303 45.9925 10.7552 48.3378 10.7552C50.6979 10.7552 52.61 8.87303 52.61 6.60249L52.61 0.433195C52.61 0.283817 52.4755 0.149378 52.3261 0.149378L50.4888 0.149378C50.3245 0.149378 50.205 0.283817 50.205 0.433195L50.205 6.48299C50.205 7.52863 49.4133 8.36515 48.3378 8.36515C47.2772 8.36515 46.5004 7.52863 46.5004 6.48299L46.5004 0.433195C46.5004 0.283817 46.3809 0.149378 46.2166 0.149378L44.3793 0.149378C44.2299 0.149378 44.0954 0.283817 44.0954 0.433195L44.0954 6.60249ZM59.1975 10.322C59.1975 10.4714 59.3319 10.6058 59.4813 10.6058L61.2739 10.6058C61.4232 10.6058 61.5577 10.4714 61.5577 10.322L61.5577 2.34523L63.6938 2.34523C63.8581 2.34523 63.9776 2.21079 63.9776 2.06141L63.9776 0.433195C63.9776 0.283817 63.8581 0.149378 63.6938 0.149378L57.0614 0.149378C56.8971 0.149378 56.7776 0.283817 56.7776 0.433195L56.7776 2.06141C56.7776 2.21079 56.8971 2.34523 57.0614 2.34523L59.1975 2.34523L59.1975 10.322ZM68.3095 10.322C68.3095 10.4714 68.429 10.6058 68.5934 10.6058L74.7776 10.6058C74.9419 10.6058 75.0614 10.4714 75.0614 10.322L75.0614 8.69378C75.0614 8.5444 74.9419 8.40996 74.7776 8.40996L70.6398 8.40996L70.6398 6.39336L74.0456 6.39336C74.195 6.39336 74.3295 6.27386 74.3295 6.10954L74.3295 4.48133C74.3295 4.33195 74.195 4.19751 74.0456 4.19751L70.6398 4.19751L70.6398 2.34523L74.7776 2.34523C74.9419 2.34523 75.0614 2.21079 75.0614 2.06141L75.0614 0.433195C75.0614 0.283817 74.9419 0.149378 74.7776 0.149378L68.5934 0.149378C68.429 0.149378 68.3095 0.283817 68.3095 0.433195L68.3095 10.322ZM92.1793 10.322C92.1793 10.4714 92.2988 10.6058 92.4631 10.6058L94.2407 10.6058C94.39 10.6058 94.5245 10.4714 94.5245 10.322L94.5245 6.51286L95.5552 6.51286L97.5419 10.4714C97.5718 10.5311 97.6622 10.6058 97.7809 10.6058L99.7676 10.6058C100.022 10.6058 100.126 10.3668 100.022 10.1726L97.9751 6.37842C99.2747 5.8556 100.186 4.75021 100.186 3.37593C100.186 1.59834 98.722 0.149378 96.9295 0.149378L92.4631 0.149378C92.2988 0.149378 92.1793 0.283817 92.1793 0.433195L92.1793 10.322ZM94.5245 4.61577L94.5245 2.28548L96.7353 2.28548C97.3477 2.28548 97.8705 2.79336 97.8705 3.42075C97.8705 4.04813 97.3477 4.61577 96.7353 4.61577L94.5245 4.61577ZM105.026 10.322C105.026 10.4714 105.145 10.6058 105.31 10.6058L111.494 10.6058C111.658 10.6058 111.778 10.4714 111.778 10.322L111.778 8.69378C111.778 8.5444 111.658 8.40996 111.494 8.40996L107.356 8.40996L107.356 6.39336L110.762 6.39336C110.911 6.39336 111.046 6.27386 111.046 6.10954L111.046 4.48133C111.046 4.33195 110.911 4.19751 110.762 4.19751L107.356 4.19751L107.356 2.34523L111.494 2.34523C111.658 2.34523 111.778 2.21079 111.778 2.06141L111.778 0.433195C111.778 0.283817 111.658 0.149378 111.494 0.149378L105.31 0.149378C105.145 0.149378 105.026 0.283817 105.026 0.433195L105.026 10.322ZM116.095 9.60498C116.438 9.94855 117.514 10.7552 119.456 10.7552C121.651 10.7552 122.981 9.20166 122.981 7.66307C122.981 5.63154 121.129 4.72033 119.963 4.25726C118.783 3.77925 118.335 3.361 118.335 2.8083C118.335 2.40498 118.739 2.04647 119.276 2.04647C120.188 2.04647 121.278 2.86805 121.412 2.94274C121.547 3.0473 121.816 2.91286 121.92 2.74855L122.682 1.59834C122.742 1.49378 122.772 1.2249 122.593 1.12033C122.144 0.791701 120.949 0 119.396 0C117.095 0 115.945 1.49378 115.945 2.97261C115.945 4.76515 117.559 5.76598 118.843 6.27386C119.859 6.67718 120.382 7.15519 120.382 7.78257C120.382 8.30539 119.949 8.67884 119.351 8.67884C118.365 8.67884 117.29 7.88714 117.23 7.85726C117.125 7.78257 116.841 7.7527 116.722 7.94689L116.02 9.18672C115.9 9.39585 115.945 9.4556 116.095 9.60498ZM126.88 5.39253C126.88 8.38008 129.255 10.7552 132.242 10.7552C135.23 10.7552 137.62 8.38008 137.62 5.39253C137.62 2.40498 135.23 0 132.242 0C129.255 0 126.88 2.40498 126.88 5.39253ZM129.27 5.39253C129.27 3.74938 130.614 2.39004 132.242 2.39004C133.885 2.39004 135.23 3.74938 135.23 5.39253C135.23 7.02075 133.885 8.36515 132.242 8.36515C130.614 8.36515 129.27 7.02075 129.27 5.39253ZM142.266 10.322C142.266 10.4714 142.385 10.6058 142.549 10.6058L148.166 10.6058C148.33 10.6058 148.45 10.4714 148.45 10.322L148.45 8.69378C148.45 8.5444 148.33 8.40996 148.166 8.40996L144.611 8.40996L144.611 0.433195C144.611 0.283817 144.476 0.149378 144.327 0.149378L142.549 0.149378C142.385 0.149378 142.266 0.283817 142.266 0.433195L142.266 10.322ZM152.468 6.60249C152.468 8.87303 154.365 10.7552 156.71 10.7552C159.071 10.7552 160.983 8.87303 160.983 6.60249L160.983 0.433195C160.983 0.283817 160.848 0.149378 160.699 0.149378L158.861 0.149378C158.697 0.149378 158.578 0.283817 158.578 0.433195L158.578 6.48299C158.578 7.52863 157.786 8.36515 156.71 8.36515C155.65 8.36515 154.873 7.52863 154.873 6.48299L154.873 0.433195C154.873 0.283817 154.754 0.149378 154.589 0.149378L152.752 0.149378C152.602 0.149378 152.468 0.283817 152.468 0.433195L152.468 6.60249ZM167.57 10.322C167.57 10.4714 167.705 10.6058 167.854 10.6058L169.646 10.6058C169.796 10.6058 169.93 10.4714 169.93 10.322L169.93 2.34523L172.066 2.34523C172.231 2.34523 172.35 2.21079 172.35 2.06141L172.35 0.433195C172.35 0.283817 172.231 0.149378 172.066 0.149378L165.434 0.149378C165.27 0.149378 165.15 0.283817 165.15 0.433195L165.15 2.06141C165.15 2.21079 165.27 2.34523 165.434 2.34523L167.57 2.34523L167.57 10.322ZM176.682 10.322C176.682 10.4714 176.817 10.6058 176.966 10.6058L178.759 10.6058C178.908 10.6058 179.042 10.4714 179.042 10.322L179.042 0.433195C179.042 0.283817 178.908 0.149378 178.759 0.149378L176.966 0.149378C176.817 0.149378 176.682 0.283817 176.682 0.433195L176.682 10.322ZM183.687 5.39253C183.687 8.38008 186.062 10.7552 189.05 10.7552C192.037 10.7552 194.427 8.38008 194.427 5.39253C194.427 2.40498 192.037 0 189.05 0C186.062 0 183.687 2.40498 183.687 5.39253ZM186.077 5.39253C186.077 3.74938 187.422 2.39004 189.05 2.39004C190.693 2.39004 192.037 3.74938 192.037 5.39253C192.037 7.02075 190.693 8.36515 189.05 8.36515C187.422 8.36515 186.077 7.02075 186.077 5.39253ZM199.073 10.322C199.073 10.4714 199.207 10.6058 199.357 10.6058L201.134 10.6058C201.299 10.6058 201.418 10.4714 201.418 10.322L201.418 4.75021L201.433 4.75021L207.334 10.6805C207.363 10.7104 207.483 10.7552 207.528 10.7552L207.767 10.7552C207.916 10.7552 208.051 10.6357 208.051 10.4863L208.051 0.433195C208.051 0.283817 207.916 0.149378 207.767 0.149378L205.974 0.149378C205.81 0.149378 205.69 0.283817 205.69 0.433195L205.69 5.7361L205.676 5.7361L199.715 0L199.342 0C199.193 0 199.058 0.119502 199.058 0.26888L199.073 10.322L199.073 10.322Z" transform="translate(188.0288 110.2484)" id="Fill-1" fill="#FFFFFE" stroke="none" />
    <path d="M0.0427886 48.1859C0.0427886 48.1859 2.04279 51.0083 2.39549 51.9494C2.39549 51.9494 3.21872 53.478 3.68926 53.1253C4.1598 52.7726 7.92329 48.3029 8.51167 47.7154C9.10005 47.127 16.0395 38.4232 16.8627 37.6C17.6859 36.7768 23.4494 30.4249 24.3905 29.366C25.3316 28.3079 28.8602 25.2498 30.0361 24.5436C31.2121 23.8382 33.4469 23.0149 34.6237 24.7793C35.7996 26.5436 37.3291 30.8954 38.2693 35.4822C39.2104 40.0697 41.2104 49.8324 41.2104 51.9494C41.2104 54.0664 41.681 55.8307 42.3864 56.1834C43.0918 56.5369 44.7391 57.9477 45.3266 57.7129C45.915 57.4772 50.032 48.6556 50.6196 47.3618C51.2079 46.068 55.7947 38.3054 57.442 37.3643C59.0884 36.4232 59.2063 37.2465 60.1474 38.1875C61.0876 39.1286 63.2428 43.1278 64.6544 46.8913C66.066 50.6556 67.6743 54.5369 68.3805 55.5958C69.0859 56.6539 70.3797 57.9054 71.0859 57.9054C71.7913 57.9054 73.0851 58.0714 75.5548 53.2432C76.8976 50.6191 81.2013 43.3635 82.3772 41.5992C83.5532 39.8349 89.905 29.7195 93.3158 24.8971C96.7266 20.0747 101.667 13.7228 105.195 10.6647C108.724 7.60664 110.136 6.43071 112.841 6.54772C115.546 6.66556 117.781 12.3112 119.074 16.0755C120.368 19.839 122.956 31.6008 122.839 42.8929C122.721 54.1842 122.839 53.2432 122.721 58.8888C122.603 64.5344 120.956 85.2357 120.133 90.6465C119.31 96.0573 118.251 104.29 117.781 109.348C117.31 114.406 116.487 124.639 116.487 128.285C116.487 131.931 116.605 159.924 116.722 162.512C116.84 165.1 118.016 173.921 118.605 173.921C119.192 173.921 118.839 156.514 118.957 154.279C119.074 152.044 120.015 139.223 121.192 129.226C122.368 119.228 124.25 97.8216 124.721 94.41C125.191 90.9992 128.366 66.6523 128.249 51.7145C128.132 36.7768 128.235 30.0448 125.191 18.5452C123.073 10.5469 119.31 4.07801 117.31 1.6083C115.311 -0.862237 113.076 0.0655634 110.606 0.784235C108.136 1.50374 99.9025 5.60664 92.1399 15.4871C84.3764 25.3676 83.9059 28.0722 81.3183 32.0714C78.7308 36.0705 74.4967 43.7162 72.7324 47.0091C70.9681 50.3029 69.7922 49.3618 69.0859 47.7154C68.3805 46.068 63.4403 37.4822 62.0287 35.1295C60.6171 32.7776 58.6179 32.5419 58.0295 32.5419C57.442 32.5419 53.0901 34.7768 50.3847 39.5992C47.6793 44.4216 46.8561 49.244 45.4444 49.4797C44.0328 49.7145 40.7399 34.1884 38.3872 26.3079C36.0345 18.4274 31.3042 19.2871 29.5656 19.7212C27.2137 20.3095 17.0254 28.6656 11.4519 34.8946C9.45275 37.1295 8.27681 37.717 7.80627 38.6581C7.33573 39.5992 6.5125 40.8929 5.80627 41.3635C5.10088 41.834 -0.544763 45.1278 0.0427886 48.1859" transform="translate(0 17.51648)" id="Fill-2" fill="#FFFFFE" stroke="none" />
    <path d="M1.77944 94.9895C1.77944 94.9895 1.77944 87.2268 1.3089 82.8741C0.839189 78.5223 0.132965 74.8766 0.0151229 71.7007C-0.10189 68.5247 0.485662 64.2907 0.897281 60.7621C1.3089 57.2335 2.72052 50.6467 3.19106 48.8824C3.6616 47.1181 5.30807 40.2957 5.77861 38.8849C6.24915 37.4733 6.83753 34.2974 7.54292 33.9447C8.24915 33.592 10.601 33.0592 11.8948 33.7961C13.1886 34.533 14.8359 35.709 15.5413 39.3554C16.2467 43.0011 15.6591 43.0011 16.1296 44.5305C16.6002 46.0592 21.4226 57.9388 22.9512 64.8783C24.4807 71.8185 27.0682 79.9339 28.7147 80.4044C30.3612 80.8749 38.8483 67.8891 41.4176 53.9397C43.7147 41.4725 43.6525 43.8243 44.9462 32.4152C46.24 21.0061 43.7147 15.9488 43.7147 13.9488C43.7147 11.9496 39.3006 1.95213 39.5354 0.187811C39.6533 -0.87111 41.7703 2.89321 41.7703 2.89321C41.7703 2.89321 48.0043 11.3613 48.7106 25.3579C49.4159 39.3554 46.5039 52.5239 42.8292 62.7613C39.5354 71.9355 36.3603 78.8758 33.8898 83.5803C31.4201 88.2849 29.6558 88.2849 28.7147 88.2849C27.7736 88.2849 25.1861 87.6052 22.2458 79.2998C19.3056 70.9944 17.0707 66.4077 13.5421 56.4102C10.0135 46.4119 9.30724 43.4716 8.95454 43.4716C8.60184 43.4716 6.95537 48.7646 6.36699 53.7048C5.77861 58.6451 5.30807 69.1131 5.30807 72.7596C5.30807 76.4052 4.13213 90.0492 3.07321 92.9895C2.01512 95.9305 1.77944 94.9895 1.77944 94.9895" transform="translate(152.4634 0)" id="Fill-3" fill="#FFFFFE" stroke="none" />
    <path d="M192.245 29.0523C190.363 28.8174 174.249 27.9934 162.135 29.2871C150.019 30.5817 141.433 31.405 139.433 29.405C137.434 27.4058 139.669 25.7585 140.257 25.2888C140.845 24.8183 142.374 23.4066 141.786 22.9361C141.198 22.4656 138.022 23.6415 136.728 23.171C135.434 22.7004 133.906 20.9361 132.965 19.1718C132.023 17.4075 128.495 17.6432 125.555 19.2896C122.614 20.9361 119.791 25.2888 118.497 27.1701C117.204 29.0523 114.145 33.4041 110.028 34.9336C105.912 36.4622 102.148 35.639 98.3845 34.3452C94.6201 33.0515 93.9147 32.4631 92.9737 30.3461C92.0326 28.229 92.9737 25.0531 92.9737 25.0531C92.9737 25.0531 104.971 20.2307 108.146 15.761C111.322 11.2921 110.499 9.40996 110.499 7.8805C110.499 6.35187 108.264 2.58755 105.559 1.05892C102.854 -0.470539 99.5604 2.47054 98.5015 3.17593C97.4434 3.88133 92.1504 9.76266 89.3272 19.5253C88.9745 20.2307 87.7986 20.5834 86.9753 20.9361C86.1513 21.2896 81.4467 23.171 80.3886 22.7004C79.3297 22.2307 80.8674 21.8672 81.094 20.1129C81.5645 16.4672 80.7413 13.1734 78.1537 8.35104C75.5662 3.52863 71.9197 0 70.5081 0C69.0965 0 68.7438 1.05892 68.5089 2.3527C68.2732 3.64647 67.8027 10.468 66.0384 13.1734C64.2741 15.8788 62.0392 18.8191 59.2168 20.3485C57.3347 21.4066 56.7463 19.2896 56.7463 18.4664C56.7463 17.6432 55.4525 12.8207 50.2774 5.05809C45.5728 -0.705394 43.8085 0.352697 43.8085 0.352697C43.8085 0.352697 42.8674 0.588382 42.3969 3.29378C41.9264 5.99917 40.7504 10.8216 38.8683 14.5851C36.9861 18.3485 36.2807 19.7602 35.6923 20.8191C35.1048 21.8772 34.9869 23.6415 33.928 23.6415C32.8699 23.6415 31.5762 19.7602 29.9289 12.468C28.2824 5.1751 23.5778 3.29378 21.343 2.94108C19.1081 2.58755 14.7562 5.29295 12.4035 8.35104C11.6981 9.17427 10.8749 8.35104 9.46329 9.17427C8.05167 9.99751 6.87574 15.2905 6.7579 15.9967C6.64089 16.7021 5.46412 23.2888 3.93549 27.1701C2.40603 31.0515 -0.769902 32.9336 0.171177 35.5212C0.171177 35.5212 1.34794 36.9328 3.11143 35.9917C4.87574 35.0506 8.64006 25.7585 9.46329 21.8772C9.93383 21.8432 9.93383 25.6415 9.93383 26.229C9.93383 26.8174 10.6392 34.3452 14.2857 35.0506C17.9322 35.7568 22.4019 33.1693 25.46 30.3461C28.5181 27.5228 29.694 27.0531 31.2235 26.9353C32.7521 26.8174 33.811 29.0963 34.6342 29.0963C35.4575 29.0963 38.045 24.9353 39.221 22.9361C40.3977 20.9361 43.4558 15.9967 44.3969 13.9967C45.3372 11.9975 46.6309 8.23319 47.1015 7.99834C47.572 7.76348 49.9247 13.7618 50.5131 18.5842C51.1006 23.4066 50.5131 23.171 50.0425 24.112C49.572 25.0531 44.2791 29.2871 45.3372 32.4631C46.3961 35.639 49.4542 35.2863 51.689 32.6988C53.9239 30.1112 54.7471 27.5228 54.982 25.4058C55.2176 24.4647 59.2168 23.1353 61.4517 22.1535C63.6865 21.1718 67.3322 18.3485 69.567 15.644C71.8019 12.9386 71.8019 9.5278 72.8608 9.29212C73.9189 9.05726 76.0517 10.8216 76.5073 13.9967C76.9239 16.9079 77.5654 19.5253 74.1546 23.171C70.7438 26.8174 67.9206 29.6407 68.7438 31.522C69.567 33.4041 72.1546 33.8747 75.4484 32.1104C78.7413 30.3461 81.7994 27.4058 88.2691 25.6415C88.504 26.3469 87.9164 29.1701 87.9164 30.9344C87.9164 32.6988 89.9156 38.8149 98.6193 39.756C107.323 40.6963 108.853 39.1676 111.087 37.9917C113.322 36.8149 117.674 32.6988 121.908 27.9934C125.555 24.0199 128.142 24.2299 129.554 24.3477C130.965 24.4647 134.493 24.2299 136.023 27.0531C136.611 28.6996 134.847 29.405 135.317 31.1693C135.511 31.8971 135.552 32.8158 139.433 33.4041C143.315 33.9925 163.899 32.9336 169.779 31.7577C175.661 30.5817 196.715 30.1112 199.773 30.5817C202.831 29.7577 194.127 29.2871 192.245 29.0523ZM27.3413 21.8772C26.6359 24.4647 24.8716 26.6996 19.8135 29.0523C14.7562 31.405 13.6973 28.8174 12.9919 26.5826C12.2865 24.3477 12.6392 17.878 12.6392 17.878C13.2276 12.3502 17.6965 7.64564 20.167 6.93942C22.6367 6.23403 23.8127 8.35104 24.6367 9.8805C25.46 11.4091 28.0475 19.2896 27.3413 21.8772ZM95.9139 17.2905C101.089 6.58672 102.384 7.40996 102.736 7.5278C103.089 7.64564 105.559 8.11618 103.56 11.527C101.56 14.9378 95.9139 17.2905 95.9139 17.2905L95.9139 17.2905Z" transform="translate(198.0615 50.05835)" id="Fill-4" fill="#FFFFFE" stroke="none" />
  </g>
</svg>