<svg xmlns:dc="http://purl.org/dc/elements/1.1/" xmlns:cc="http://creativecommons.org/ns#" xmlns:rdf="http://www.w3.org/1999/02/22-rdf-syntax-ns#" xmlns:svg="http://www.w3.org/2000/svg" xmlns="http://www.w3.org/2000/svg" xmlns:sodipodi="http://sodipodi.sourceforge.net/DTD/sodipodi-0.dtd" xmlns:inkscape="http://www.inkscape.org/namespaces/inkscape" version="1.1" x="0px" y="0px" viewBox="0 0 100 125"><g transform="translate(0,-952.36218)"><path style="text-indent:0;text-transform:none;direction:ltr;block-progression:tb;baseline-shift:baseline;color:#000000;enable-background:accumulate;" d="m 51.998977,1029.6096 17.99999,-15.9991 c 1.22844,-1.0301 1.33786,-3.0662 0.26859,-4.2607 -1.06926,-1.1944 -3.10913,-1.315 -4.26859,-0.2078 l -13,11.5619 0,-43.34183 c 0,-1.6568 -1.34319,-2.9999 -2.99999,-2.9999 -1.6569,0 -3,1.3431 -3,2.9999 l 0,43.34183 -13,-11.5619 c -1.1595,-1.1072 -3.1957,-0.9574 -4.265,0.2371 -1.0692,1.1945 -0.9634,3.2013 0.265,4.2314 l 18,15.9991 c 1.4553,1.0446 2.7618,0.9614 4,0 z" fill="#000000" fill-opacity="1" stroke="none" marker="none" visibility="visible" display="inline" overflow="visible"/></g></svg>